<svg id="Capa_1" data-name="Capa 1" xmlns="http://www.w3.org/2000/svg" xmlns:xlink="http://www.w3.org/1999/xlink" viewBox="0 0 401 112"><defs><style>.cls-1{isolation:isolate;}.cls-2,.cls-3,.cls-4,.cls-5{fill:#0668b0;}.cls-2{filter:url(#filter);}.cls-3{filter:url(#filter-2);}.cls-4{filter:url(#filter-3);}.cls-5{filter:url(#filter-4);}</style><filter id="filter" x="0" y="0" width="97" height="112" filterUnits="userSpaceOnUse"><feOffset dx="5" dy="5" input="SourceAlpha"/><feGaussianBlur stdDeviation="4" result="blur"/><feFlood/><feComposite operator="in" in2="blur"/><feComposite in="SourceGraphic"/></filter><filter id="filter-2" x="173" y="0" width="136" height="112" filterUnits="userSpaceOnUse"><feOffset dx="5" dy="5" input="SourceAlpha"/><feGaussianBlur stdDeviation="4" result="blur-2"/><feFlood/><feComposite operator="in" in2="blur-2"/><feComposite in="SourceGraphic"/></filter><filter id="filter-3" x="81" y="0" width="107" height="112" filterUnits="userSpaceOnUse"><feOffset dx="5" dy="5" input="SourceAlpha"/><feGaussianBlur stdDeviation="4" result="blur-3"/><feFlood/><feComposite operator="in" in2="blur-3"/><feComposite in="SourceGraphic"/></filter><filter id="filter-4" x="294" y="0" width="107" height="112" filterUnits="userSpaceOnUse"><feOffset dx="5" dy="5" input="SourceAlpha"/><feGaussianBlur stdDeviation="4" result="blur-4"/><feFlood/><feComposite operator="in" in2="blur-4"/><feComposite in="SourceGraphic"/></filter></defs><g class="cls-1"><path class="cls-2" d="M79.8,95H48.1c-9.3,0-16.7-1-22.3-3.1A26.8,26.8,0,0,1,10.5,78.1,32.6,32.6,0,0,1,8,70.9a45.8,45.8,0,0,1-.7-8V7.4H29.9V62.2a21.9,21.9,0,0,0,.9,6.6,17,17,0,0,0,3.1,5.5,14.9,14.9,0,0,0,7.3,5.3,38.4,38.4,0,0,0,10.5,1.2H79.8Z"/><path class="cls-3" d="M291.2,95h-19V28L247.4,95H224.9L199.3,26.5V95H181V7.4h29.3L236,76.7,260.7,7.4h30.5Z"/><path class="cls-4" d="M170.3,95H127.6a42.9,42.9,0,0,1-19.1-4.5A32.9,32.9,0,0,1,93.4,75a52.2,52.2,0,0,1-5.2-23.4,52.4,52.4,0,0,1,5-23q5.5-11.1,15.3-16.2a40.5,40.5,0,0,1,10.4-3.9,48.1,48.1,0,0,1,11.3-1.1h39.6V23H133.2a23.9,23.9,0,0,0-8.2,1.3,20.3,20.3,0,0,0-6.6,4.6,20.1,20.1,0,0,0-4.5,6.5,21.9,21.9,0,0,0-1.3,7.8h57.7V58.9H112.6a21.9,21.9,0,0,0,1.2,7.5,18.9,18.9,0,0,0,4.1,6.5,22.3,22.3,0,0,0,6.1,5.2,16.8,16.8,0,0,0,7.7,1.7h38.6Z"/><path class="cls-5" d="M383.7,95H341a42.9,42.9,0,0,1-19.1-4.5A32.9,32.9,0,0,1,306.8,75a52.2,52.2,0,0,1-5.2-23.4,52.4,52.4,0,0,1,5-23q5.5-11.1,15.3-16.2a39.9,39.9,0,0,1,10.3-3.9,49,49,0,0,1,11.4-1.1h39.6V23H346.6a23.9,23.9,0,0,0-8.2,1.3,20.3,20.3,0,0,0-6.6,4.6,20.1,20.1,0,0,0-4.5,6.5,21.9,21.9,0,0,0-1.3,7.8h57.7V58.9H326a21.9,21.9,0,0,0,1.2,7.5,18.9,18.9,0,0,0,4.1,6.5,22.3,22.3,0,0,0,6.1,5.2,16.7,16.7,0,0,0,7.6,1.7h38.7Z"/></g></svg>